PathFileType	4	(X/Y/Z)	c:/Users/goper/Files/vsCode/490R/osim_files/C03/C03_fast_06.trc
DataRate	CameraRate	NumFrames	NumMarkers	Units                	OrigDataRate	OrigDataStartFrame	OrigNumFrames
250.00	250.00	6	36	mm	250.0	1611	2147
                Frame#	Time	LPSIS			LASIS			LTH1			LTH2			LTH3			LTH4			LLFE			LMFE			LSH1			LSH2			LSH3			LSH4			LLMAL			LMMAL			LCAL			LMTP5			LTOE			LMTP1			RPSIS			RASIS			RTH1			RTH2			RTH3			RTH4			RLFE			RMFE			RSH1			RSH2			RSH3			RSH4			RLMAL			RMMAL			RCAL			RMTP1			RTOE			RMTP5		
		X1	Y1	Z1	X2	Y2	Z2	X3	Y3	Z3	X4	Y4	Z4	X5	Y5	Z5	X6	Y6	Z6	X7	Y7	Z7	X8	Y8	Z8	X9	Y9	Z9	X10	Y10	Z10	X11	Y11	Z11	X12	Y12	Z12	X13	Y13	Z13	X14	Y14	Z14	X15	Y15	Z15	X16	Y16	Z16	X17	Y17	Z17	X18	Y18	Z18	X19	Y19	Z19	X20	Y20	Z20	X21	Y21	Z21	X22	Y22	Z22	X23	Y23	Z23	X24	Y24	Z24	X25	Y25	Z25	X26	Y26	Z26	X27	Y27	Z27	X28	Y28	Z28	X29	Y29	Z29	X30	Y30	Z30	X31	Y31	Z31	X32	Y32	Z32	X33	Y33	Z33	X34	Y34	Z34	X35	Y35	Z35	X36	Y36	Z36

1611	6.44000	-1909.71948	1030.73535	307.88339	-2091.27588	974.79626	336.11130	-2045.45972	619.62433	386.23059	-2061.40283	561.58282	372.47125	-2118.61377	635.98633	372.33493	-2124.11108	575.59637	359.70978	-2094.55103	483.61606	354.25699	-2081.53540	483.13004	243.60553	-2033.68347	298.50482	357.58127	-2040.37671	252.43652	350.99020	-2094.52734	304.65076	360.23987	-2093.55225	257.26105	354.04956	-2086.08105	99.20963	322.00531	-2099.93359	110.38297	241.84137	-2017.96533	63.29336	290.19070	-2224.15625	52.90497	330.49255	-2250.74219	71.51504	274.33734	-2225.32275	57.23450	236.29659	-1907.63574	1013.43860	195.10623	-2074.27417	961.99463	133.29895	-1976.29297	581.39038	132.19376	-1982.92529	520.04944	142.24327	-2026.95056	585.15088	90.94484	-2040.91870	524.59644	92.55406	-2033.27246	455.29639	102.77391	-2059.47363	461.92566	215.61328	-1837.42322	414.94043	120.39365	-1800.58081	385.12762	123.59167	-1865.53906	363.93369	97.90570	-1826.92700	344.48544	103.64821	-1698.31104	262.10849	135.01680	-1719.44983	244.18034	210.89328	-1646.17493	308.98245	182.56180	-1702.82556	112.24885	210.13680	-1723.36804	94.02382	167.31096	-1667.08118	131.44260	111.47956
1612	6.44400	-1915.42847	1031.70105	308.62802	-2096.20825	974.83185	336.52081	-2047.78955	620.00104	386.26456	-2063.41309	561.85522	372.65173	-2121.15430	635.81982	372.83493	-2126.31250	575.41895	360.28122	-2096.20630	483.71973	354.48923	-2083.79932	483.31332	243.70500	-2034.53406	298.90063	357.59149	-2040.95325	252.84700	350.94437	-2095.38965	304.81311	360.34589	-2093.53223	257.22806	353.81927	-2086.32983	99.26418	321.93008	-2100.28296	110.53909	241.91058	-2018.07727	63.41985	290.18869	-2224.33765	52.79296	330.49808	-2250.52612	70.83750	274.67477	-2225.74683	57.46199	236.47574	-1913.25012	1014.75525	195.76637	-2079.89062	963.43683	133.42146	-1986.61890	582.50360	132.55692	-1993.75757	521.43390	142.74022	-2037.06165	586.73480	91.36475	-2051.79443	526.30890	93.00069	-2045.04517	457.16913	103.21476	-2070.61987	463.99588	216.18700	-1849.50061	416.58005	120.67213	-1812.57776	386.73056	123.81207	-1877.65466	365.57553	98.19080	-1839.08679	346.07199	103.90649	-1710.85925	262.88104	134.94319	-1731.85583	244.98436	210.82373	-1657.72290	308.77249	182.23940	-1716.98853	112.83613	209.49039	-1738.07080	95.02242	166.70677	-1681.76636	131.87672	110.61127
1613	6.44800	-1921.13452	1032.58044	309.25043	-2101.57153	975.35248	336.72452	-2050.18726	620.55859	386.29620	-2065.29663	562.22852	372.89908	-2123.64404	635.81000	373.40045	-2128.44067	575.32782	360.87302	-2097.91895	483.83136	354.74448	-2086.15552	483.54089	243.79082	-2035.48938	299.30234	357.67575	-2041.66052	253.28166	350.98349	-2096.46509	304.94876	360.46429	-2094.44092	257.43637	353.93036	-2086.57300	99.29553	321.85153	-2100.39038	110.53927	241.67325	-2018.16077	63.50186	290.21561	-2224.45093	52.67338	330.49570	-2250.71899	70.59824	274.72272	-2225.50928	56.90654	236.29578	-1918.69104	1016.18091	196.43687	-2085.43457	964.96698	133.58467	-1996.68799	583.64661	132.98174	-2004.65601	522.45648	142.93037	-2047.31470	588.48560	91.76807	-2062.49902	528.21539	93.44595	-2056.72485	459.13004	103.63419	-2081.49243	466.31723	217.61349	-1861.34521	418.01300	120.96512	-1824.71619	388.01273	124.12280	-1889.81824	367.14093	98.51276	-1851.23560	347.52692	104.09808	-1723.49915	263.25723	134.89667	-1744.25037	245.49896	210.80994	-1669.40222	308.38327	181.83705	-1731.06396	113.16726	208.86195	-1753.22156	95.81301	166.21484	-1696.56799	132.14143	109.76214
1614	6.45200	-1926.66284	1033.55908	309.83527	-2106.96460	975.93994	336.83887	-2052.43506	621.15356	386.45456	-2067.31372	562.81525	373.20197	-2125.88281	635.66675	374.12808	-2130.47485	575.30573	361.59412	-2099.57886	484.05750	354.98474	-2088.32788	483.88254	243.94165	-2036.57947	299.84512	358.06174	-2042.54700	253.79340	350.92703	-2097.49634	305.07294	360.55054	-2095.10205	257.35974	353.97232	-2086.75049	99.32787	321.81244	-2100.63940	110.64953	241.61894	-2018.17737	63.64890	290.20245	-2224.55396	52.55087	330.53519	-2250.81470	70.33033	274.74091	-2226.02124	57.25947	236.45670	-1924.23169	1017.49109	197.01115	-2091.00513	966.50708	133.73309	-2006.74048	584.96857	133.31918	-2015.24792	523.82373	143.25528	-2057.29761	590.28436	92.25665	-2073.12329	530.15094	93.88602	-2068.28003	461.17288	104.13737	-2093.97021	468.36307	217.72368	-1872.88025	419.30450	121.08327	-1836.52112	389.12201	124.31644	-1902.09351	368.68665	98.96130	-1863.33972	348.86630	104.29997	-1736.22095	263.55841	134.79906	-1756.73816	245.72112	210.76524	-1681.14795	307.78204	181.51974	-1745.34290	113.27806	208.28638	-1767.77649	96.51517	165.67229	-1711.39502	132.26624	108.90202
1615	6.45600	-1932.23572	1034.50293	310.42377	-2112.25244	976.55518	337.01172	-2054.72876	621.90332	386.50867	-2069.19946	563.36786	373.56100	-2128.36670	635.91901	374.47180	-2133.09790	575.51495	362.69434	-2101.17358	484.25342	355.28561	-2088.97290	484.01099	244.78415	-2037.75452	300.29169	358.14182	-2043.61951	254.15967	351.25861	-2098.75659	305.20105	360.53412	-2096.22095	257.74936	353.94455	-2086.96729	99.34816	321.77313	-2100.85986	110.78135	241.56677	-2018.23865	63.76299	290.21191	-2224.63013	52.42734	330.56216	-2250.96265	70.08429	274.80762	-2225.71582	56.64153	236.35143	-1929.78430	1018.88220	197.64185	-2096.63647	968.06769	133.83449	-2016.74829	586.21356	133.75792	-2025.68237	525.23187	143.62671	-2067.25317	592.15594	92.68822	-2083.74170	532.21289	94.35831	-2079.84497	463.31226	104.67773	-2105.25366	470.70996	218.44481	-1884.83228	420.53400	121.69049	-1848.50061	390.10196	124.56156	-1914.03809	370.05112	99.08936	-1875.53760	349.97830	104.39827	-1748.95776	263.65918	134.69960	-1769.40454	245.75838	210.63451	-1692.91357	306.90744	181.08038	-1759.74280	113.26450	207.69905	-1782.79944	96.98815	165.23567	-1726.30408	132.16841	108.07870
1616	6.46000	-1937.81604	1035.46960	310.97623	-2117.61328	977.20575	337.17529	-2057.05298	622.68524	386.51465	-2071.22046	564.02313	373.86023	-2130.69336	635.99347	375.09241	-2134.50171	575.47046	363.08633	-2102.78003	484.48230	355.64090	-2093.25024	484.33246	244.82460	-2039.10596	300.73380	358.44995	-2043.27808	255.45668	351.29587	-2100.06909	305.41910	360.55640	-2097.43188	257.94580	353.94839	-2087.19556	99.37077	321.73514	-2101.13330	110.92079	241.56659	-2018.36218	63.83689	290.21695	-2224.69556	52.27990	330.62662	-2251.11768	69.86855	274.87079	-2225.82275	56.55956	236.40962	-1935.35620	1020.21161	198.17673	-2102.08081	969.56573	133.99017	-2026.44751	587.70001	133.95560	-2036.03979	526.79791	144.07014	-2076.99756	594.08453	93.13097	-2094.11353	534.27356	94.83279	-2091.33398	465.48236	105.29622	-2116.51611	473.12695	219.26575	-1896.59045	421.44757	122.05173	-1860.50281	390.79456	124.87248	-1925.95898	371.35272	99.27732	-1887.69629	350.88583	104.60789	-1761.71960	263.59485	134.66634	-1781.68140	245.70380	211.05986	-1704.96411	305.88428	181.04669	-1774.31201	113.24603	206.96782	-1797.88293	97.37459	164.64441	-1741.30054	131.96359	107.26228
